<svg width="60" height="60" viewBox="0 0 60 60" fill="none" xmlns="http://www.w3.org/2000/svg">
<path d="M34.2228 0.941772C20.4436 0.941772 9.38268 12.0964 9.38268 25.7819C9.38268 31.1249 11.0699 36.0929 13.9758 40.1235L2.72741 49.9658C0.477738 51.9343 0.384002 55.4025 2.4462 57.4647C4.5084 59.5269 7.97664 59.4332 9.9451 57.2773L19.7874 46.1227C23.8181 49.0285 28.7861 50.7157 34.1291 50.7157C47.9083 50.622 59.0629 39.5611 59.0629 25.7819C59.0629 12.0964 47.9083 0.941772 34.2228 0.941772Z" fill="white"/>
<path d="M6.10169 59.9956C4.50818 59.9956 2.91466 59.3395 1.78982 58.2146C0.571252 56.996 -0.0849022 55.4025 0.00883409 53.7153C0.10257 52.028 0.758724 50.4345 2.07103 49.3097L12.6632 40.0298C9.85114 35.8116 8.4451 30.9374 8.4451 25.7819C8.4451 11.6277 19.9747 0.00439453 34.2226 0.00439453C48.4705 0.00439453 60 11.6277 60 25.7819C60 40.0298 48.4705 51.5593 34.2226 51.5593C29.1608 51.5593 24.1928 50.0596 19.9747 47.2475L10.601 57.8397C9.4762 59.2457 7.88268 59.9956 6.10169 59.9956ZM34.2226 1.87912C21.0058 1.87912 10.3198 12.6588 10.3198 25.7819C10.3198 30.7499 11.8196 35.5304 14.7254 39.5611L15.1941 40.2173L3.2896 50.7157C2.44598 51.4656 1.88356 52.5904 1.88356 53.7153C1.88356 54.9338 2.2585 55.9649 3.10213 56.8086C3.85202 57.6522 4.97686 58.0271 6.10169 58.0271C7.32026 58.0271 8.4451 57.4647 9.28873 56.6211L19.6935 44.8103L20.3496 45.279C24.3803 48.1848 29.1608 49.6846 34.1288 49.6846C47.4394 49.7784 58.1253 38.9987 58.1253 25.7819C58.1253 12.5651 47.4394 1.87912 34.2226 1.87912Z" fill="#193651"/>
<path d="M55.5006 25.7819C43.7836 11.909 24.7551 11.909 13.0381 25.7819C24.6614 39.6549 43.6898 39.6549 55.5006 25.7819Z" fill="#27A2DE"/>
<path d="M29.4421 34.9681C24.3804 32.2497 22.4119 26.0631 25.0365 21.0014C27.6612 15.9396 33.9415 13.9712 39.0032 16.6895C44.065 19.4079 46.0335 25.5945 43.4089 30.6562C40.7842 35.718 34.5039 37.6864 29.4421 34.9681Z" fill="#D3D7DA"/>
<path d="M36.4724 21.5638C34.129 20.3452 31.1294 21.1888 29.9109 23.626C28.6923 26.0631 29.6296 28.9689 31.9731 30.1875C34.3165 31.4061 37.316 30.5625 38.5346 28.1253C39.7532 25.6882 38.8158 22.7823 36.4724 21.5638Z" fill="#F15F50"/>
<path d="M32.2541 21.1888C31.3167 20.7201 30.0982 21.0013 29.5358 22.0324C29.0671 22.9698 29.442 24.1884 30.3794 24.7508C31.3167 25.2195 32.5353 24.9383 33.0977 23.9072C33.6602 22.8761 33.2852 21.7512 32.2541 21.1888Z" fill="white"/>
<path d="M31.6913 28.3128C32.1054 28.3128 32.4412 27.977 32.4412 27.5629C32.4412 27.1487 32.1054 26.813 31.6913 26.813C31.2771 26.813 30.9414 27.1487 30.9414 27.5629C30.9414 27.977 31.2771 28.3128 31.6913 28.3128Z" fill="white"/>
<path d="M33.2852 8.34692H35.1599V12.7525H33.2852V8.34692Z" fill="#193651"/>
<path d="M27.2881 13.77L26.1479 9.51463L27.9588 9.02944L29.0989 13.2848L27.2881 13.77Z" fill="#193651"/>
<path d="M21.6797 16.3489L19.4769 12.5336L21.1005 11.5963L23.3032 15.4115L21.6797 16.3489Z" fill="#193651"/>
<path d="M46.7793 16.3251L45.1556 15.388L47.3579 11.5722L48.9816 12.5093L46.7793 16.3251Z" fill="#193651"/>
<path d="M41.208 13.7717L39.3972 13.2865L40.5373 9.03115L42.3482 9.51633L41.208 13.7717Z" fill="#193651"/>
<path d="M33.2852 38.9049H35.1599V43.3105H33.2852V38.9049Z" fill="#193651"/>
<path d="M40.5469 42.609L39.4067 38.3536L41.2176 37.8684L42.3577 42.1238L40.5469 42.609Z" fill="#193651"/>
<path d="M47.3174 40.0665L45.115 36.2508L46.7387 35.3136L48.9411 39.1294L47.3174 40.0665Z" fill="#193651"/>
<path d="M21.0781 40.0887L19.4544 39.1516L21.6567 35.3358L23.2804 36.2729L21.0781 40.0887Z" fill="#193651"/>
<path d="M27.9053 42.6287L26.0944 42.1435L27.2346 37.8881L29.0454 38.3733L27.9053 42.6287Z" fill="#193651"/>
</svg>
