<svg width="24" height="24" viewBox="0 0 24 24" fill="none" xmlns="http://www.w3.org/2000/svg">
<path d="M1 12C1 4 4 1 12 1C20 1 23 4 23 12C23 20 20 23 12 23C4 23 1 20 1 12Z" fill="#E7F4EE"/>
<path d="M17.9664 14.7311C17.9552 15.1354 17.8332 15.5282 17.6145 15.8642C17.3958 16.2002 17.0893 16.4657 16.7304 16.6302C16.3578 16.8398 15.9454 16.9636 15.5218 16.9931C15.0981 17.0226 14.6733 16.9571 14.2767 16.8011C13.5171 16.5175 12.772 16.1943 12.0444 15.8326C11.1044 15.32 10.2659 14.6308 9.57222 13.8006C8.78525 12.9096 8.10969 11.9208 7.5613 10.8571C7.14997 10.1199 6.95756 9.27485 7.00784 8.42633C7.04578 7.98819 7.174 7.5634 7.38395 7.18027C7.59391 6.79715 7.88079 6.46448 8.22546 6.20445C8.38441 6.0937 8.56899 6.02818 8.76048 6.01455C8.99378 5.99515 9.22823 5.99515 9.46153 6.01455C9.54685 6.02566 9.62717 6.06211 9.69269 6.11944C9.75822 6.17677 9.80611 6.2525 9.83051 6.33739C10.015 6.77416 10.1626 7.21094 10.3286 7.66671C10.4947 8.12248 10.5316 8.2744 10.6607 8.55926C10.7742 8.71622 10.8292 8.90992 10.8157 9.1051C10.8021 9.30028 10.721 9.48397 10.5869 9.62272C10.4093 9.86155 10.2118 10.0839 9.99655 10.2874C9.91782 10.3513 9.86483 10.4429 9.8478 10.5445C9.83077 10.6462 9.8509 10.7508 9.9043 10.8381C10.4038 11.7719 11.0668 12.6024 11.8599 13.2879C12.4284 13.7268 13.0482 14.0904 13.7048 14.3703C13.7728 14.4344 13.8616 14.4699 13.9538 14.4699C14.046 14.4699 14.1349 14.4344 14.2029 14.3703L15.1253 13.2879C15.3283 13.06 15.4205 13.003 15.6788 13.1359L17.948 14.3513C17.9787 14.4091 17.9963 14.4733 17.9995 14.5391C18.0027 14.6048 17.9914 14.6705 17.9664 14.7311Z" fill="#0F9455"/>
</svg>
