<svg width="60" height="60" viewBox="0 0 60 60" fill="none" xmlns="http://www.w3.org/2000/svg">
<g clip-path="url(#clip0_1053_716)">
<path d="M29.8564 6.14709H55.516V38.4549H29.8564V6.14709Z" fill="#E2F3FD"/>
<path d="M41.3986 15.7597H45.2076V14.0361H41.3986V11.9248H46.1377V10.1671H39.167V19.7706H46.2051V17.9523H41.3986V15.7597ZM48.7907 24.3113H45.8392V30.7751H47.3413V28.3168H48.932C49.6062 28.3168 50.1726 28.129 50.6155 27.7593C51.0651 27.3833 51.293 26.8865 51.293 26.2824C51.293 25.7503 51.0829 25.2835 50.6689 24.8944C50.2572 24.5075 49.6253 24.3113 48.7907 24.3113ZM47.341 25.4991H48.5686C49.019 25.4991 49.329 25.5782 49.4897 25.7348C49.6518 25.8925 49.7303 26.0759 49.7303 26.2958C49.7303 26.5394 49.6466 26.7282 49.4739 26.8734C49.2973 27.0218 49.0299 27.0971 48.6796 27.0971H47.3413L47.341 25.4991Z" fill="#666666"/>
<path d="M34.3867 33.2479H37.7583V34.7486H34.3867V33.2479Z" fill="black"/>
<path d="M41 33.2479H44.3716V34.7486H41V33.2479ZM47.6136 33.2479H50.9852V34.7486H47.6136V33.2479Z" fill="#666666"/>
<path d="M23.2676 1.10303C16.2281 1.10303 10.3259 6.42086 9.59463 13.4224L7.70215 34.7137C7.70215 43.88 38.8331 43.88 38.8331 34.7137L36.9409 13.4224C36.2097 6.42113 30.3074 1.10303 23.2676 1.10303Z" fill="#6D2801"/>
<path d="M17.851 40.6277C7.87481 42.1589 0.467773 48.1832 0.467773 59.7983H46.0674C46.0674 48.1832 38.6604 42.1589 28.6845 40.6277H17.851Z" fill="#E2F3FD"/>
<path d="M30.0607 40.8708C29.6081 40.7799 29.1494 40.6989 28.685 40.6277V35.1483C27.9756 34.8801 27.1958 34.6635 26.3623 34.5077H20.1741C19.3408 34.6632 18.5607 34.8801 17.8516 35.1483V40.6274C17.3872 40.6986 16.9285 40.7797 16.4756 40.8705L19.9752 54.1326V59.7983H26.5615V54.1326L30.0607 40.8708Z" fill="#FBBF8C"/>
<path d="M32.2526 47.7048C32.2526 47.7048 30.6128 45.4584 30.6112 45.4601C27.0988 49.3989 19.4363 49.3989 15.9237 45.4601L14.2822 47.7048L19.9744 57.2829V59.7986H26.5607V57.2829L32.2526 47.7048Z" fill="#36CFDA"/>
<path d="M19.9662 57.2524L16.4192 39.3661L11.1406 41.6897L14.0274 46.189L12.6337 49.357L19.9662 57.2524ZM26.5705 57.2524L30.1176 39.3661L35.3958 41.6897L32.5093 46.189L33.9028 49.357L26.5705 57.2524ZM45.8773 50.4841C46.1428 50.4844 46.3973 50.59 46.5851 50.7778C46.7728 50.9655 46.8784 51.22 46.8787 51.4855V53.5695C46.8787 55.271 45.4945 56.6549 43.7933 56.6549H41.2924C39.5909 56.6549 38.2067 55.271 38.2067 53.5695V51.4855C38.207 51.22 38.3126 50.9655 38.5003 50.7778C38.6881 50.59 38.9426 50.4844 39.2081 50.4841H45.8773Z" fill="#82E1E8"/>
<path d="M43.793 57.4055H41.292C39.1769 57.4055 37.4561 55.6846 37.4561 53.5695V51.4855C37.4561 50.5196 38.2419 49.7338 39.2077 49.7338H45.877C46.8429 49.7338 47.6287 50.5196 47.6287 51.4855V53.5695C47.6287 55.6846 45.9081 57.4055 43.793 57.4055ZM39.2077 51.2344C39.1412 51.2344 39.0773 51.2609 39.0302 51.308C38.9832 51.355 38.9567 51.4189 38.9567 51.4855V53.5695C38.9567 54.8573 40.0045 55.9048 41.292 55.9048H43.793C45.0806 55.9048 46.128 54.8571 46.128 53.5695V51.4855C46.128 51.4189 46.1016 51.355 46.0545 51.308C46.0074 51.2609 45.9436 51.2344 45.877 51.2344H39.2077Z" fill="#666666"/>
<path d="M51.5795 50.4841H58.2487C58.5142 50.4844 58.7688 50.59 58.9565 50.7777C59.1442 50.9655 59.2498 51.22 59.2501 51.4855V53.5695C59.2501 55.271 57.8659 56.6549 56.1647 56.6549H53.6635C51.9623 56.6549 50.5781 55.271 50.5781 53.5695V51.4855C50.5784 51.22 50.684 50.9655 50.8717 50.7777C51.0595 50.59 51.314 50.4844 51.5795 50.4841Z" fill="#82E1E8"/>
<path d="M56.1641 57.4055H53.6631C51.548 57.4055 49.8271 55.6846 49.8271 53.5695V51.4855C49.8271 50.5196 50.613 49.7338 51.5788 49.7338H58.2481C59.214 49.7338 59.9998 50.5196 59.9998 51.4855V53.5695C59.9998 55.6846 58.2789 57.4055 56.1641 57.4055ZM51.5788 51.2344C51.5123 51.2344 51.4484 51.2609 51.4013 51.308C51.3543 51.355 51.3278 51.4189 51.3278 51.4855V53.5695C51.3278 54.8573 52.3756 55.9048 53.6631 55.9048H56.1641C57.4516 55.9048 58.4991 54.8571 58.4991 53.5695V51.4855C58.4991 51.4189 58.4727 51.355 58.4256 51.308C58.3785 51.2609 58.3147 51.2344 58.2481 51.2344H51.5788Z" fill="#666666"/>
<path d="M49.9989 52.7454L48.8499 51.039C48.7948 50.9572 48.6598 50.9572 48.6046 51.039L47.4557 52.7454L46.2109 51.9075L47.3599 50.2008C47.6669 49.7452 48.1779 49.4731 48.7274 49.4731C49.2769 49.4731 49.7877 49.7452 50.0947 50.2008L51.2439 51.9075L49.9989 52.7454Z" fill="#666666"/>
<path d="M34.338 22.2085C36.021 22.2085 37.3847 23.5722 37.3847 25.2549C37.3847 26.9375 36.021 28.3015 34.3383 28.3015H12.1963C10.5134 28.3015 9.14941 26.9375 9.14941 25.2549C9.14941 23.5722 10.5134 22.2085 12.1963 22.2085H34.338Z" fill="#FBBF8C"/>
<path d="M27.9962 12.1528C25.444 19.1918 15.778 21.7689 12.6484 22.3418L12.6503 27.1751C12.6615 33.9417 19.7914 39.0888 23.2677 39.2601C26.7438 39.0888 33.8734 33.9417 33.8848 27.1751L33.8876 21.5236C33.8878 21.2253 33.8592 20.8256 33.8002 20.3588C33.0248 17.8682 28.4838 18.5836 27.9962 12.1528Z" fill="#FDD0A9"/>
<path d="M18.6901 25.5984C19.3587 25.5984 19.9008 25.0564 19.9008 24.3878C19.9008 23.7191 19.3587 23.1771 18.6901 23.1771C18.0215 23.1771 17.4795 23.7191 17.4795 24.3878C17.4795 25.0564 18.0215 25.5984 18.6901 25.5984Z" fill="#6D2801"/>
<path d="M27.8454 25.5984C28.514 25.5984 29.056 25.0564 29.056 24.3878C29.056 23.7191 28.514 23.1771 27.8454 23.1771C27.1768 23.1771 26.6348 23.7191 26.6348 24.3878C26.6348 25.0564 27.1768 25.5984 27.8454 25.5984Z" fill="#6D2801"/>
<path d="M23.2682 33.2003C21.8807 33.2003 20.5451 32.487 19.6035 31.2434L20.8 30.3375C21.4649 31.2161 22.3416 31.6996 23.2682 31.6996C24.1947 31.6996 25.0717 31.2158 25.7366 30.3375L26.9331 31.2434C25.9917 32.487 24.6559 33.2003 23.2682 33.2003Z" fill="#6D2801"/>
</g>
<defs>
<clipPath id="clip0_1053_716">
<rect width="60" height="60" fill="white"/>
</clipPath>
</defs>
</svg>
