<svg width="46" height="46" viewBox="0 0 46 46" fill="none" xmlns="http://www.w3.org/2000/svg">
<path d="M13.9619 0H5.11058C2.29254 0 0 2.29254 0 5.11058V14.3185H13.9619V0ZM31.3185 46H40.8894C43.7075 46 46 43.7075 46 40.8894V31.6752H31.3185V46ZM0 31.6752V40.8894C0 43.7075 2.29254 46 5.11058 46H13.9618V31.6752H0ZM40.8894 0H31.3185V14.3185H46V5.11058C46 2.29254 43.7075 0 40.8894 0Z" fill="#FFB13B"/>
<path d="M16.6569 0H28.6235V14.3185H16.6569V0ZM31.3185 17.0135H46V28.9802H31.3185V17.0135ZM16.6569 31.6752H28.6235V46H16.6569V31.6752ZM0 17.0135H13.9619V28.9802H0V17.0135Z" fill="#FF9500"/>
<path d="M16.6572 17.0135H28.6239V28.9802H16.6572V17.0135Z" fill="#FFB13B"/>
</svg>
