<svg xmlns="http://www.w3.org/2000/svg" width="41" height="41" viewBox="0 0 41 41">
  <g id="Group_858" data-name="Group 858" transform="translate(2430.672 522.5)">
    <g id="sun_1_" data-name="sun (1)" transform="translate(-2430.672 -522.5)">
      <path id="Path_674" data-name="Path 674" d="M11.27,8.535H45.434a2.735,2.735,0,0,1,2.735,2.735V45.434a2.735,2.735,0,0,1-2.735,2.735H11.27a2.735,2.735,0,0,1-2.735-2.735V11.27A2.735,2.735,0,0,1,11.27,8.535Zm0,0" transform="translate(-7.852 -7.852)" fill="#00695c"/>
      <path id="Path_675" data-name="Path 675" d="M11.27,8.535H42.791a2.735,2.735,0,0,1,2.735,2.735V45.434a2.735,2.735,0,0,1-2.735,2.735H11.27a2.735,2.735,0,0,1-2.735-2.735V11.27A2.735,2.735,0,0,1,11.27,8.535Zm0,0" transform="translate(-7.852 -7.852)" fill="#009688"/>
      <path id="Path_676" data-name="Path 676" d="M76.835,44.035V75.468a1.371,1.371,0,0,1-1.367,1.367H44.035a1.317,1.317,0,0,1-.834-.294.007.007,0,0,0-.007.007l-.062-.062c-.034-.034-.075-.068-.109-.109s-.055-.062-.082-.089a1.118,1.118,0,0,1-.089-.15.445.445,0,0,1-.054-.1c-.028-.061-.048-.123-.069-.185-.007-.027-.02-.061-.027-.089a1.426,1.426,0,0,1-.034-.3V44.035a1.371,1.371,0,0,1,1.367-1.367H75.468A1.374,1.374,0,0,1,76.835,44.035Zm0,0" transform="translate(-39.251 -39.251)" fill="#1566c0"/>
      <path id="Path_677" data-name="Path 677" d="M74.784,44.035V75.468a1.371,1.371,0,0,1-1.367,1.367H44.034a1.317,1.317,0,0,1-.834-.294.007.007,0,0,0-.007.007l-.062-.062c-.034-.034-.075-.068-.109-.109s-.055-.062-.082-.089a1.118,1.118,0,0,1-.089-.15.445.445,0,0,1-.054-.1c-.028-.061-.048-.123-.069-.185-.007-.027-.02-.061-.027-.089a1.426,1.426,0,0,1-.034-.3V44.035a1.371,1.371,0,0,1,1.367-1.367H73.417A1.374,1.374,0,0,1,74.784,44.035Zm0,0" transform="translate(-39.25 -39.251)" fill="#2296f3"/>
      <path id="Path_678" data-name="Path 678" d="M213,225.966a4.1,4.1,0,0,1-6.382,3.4,4.223,4.223,0,0,1-.861-.772,3.866,3.866,0,0,1-.7-1.23,3.981,3.981,0,0,1-.253-1.4,4.056,4.056,0,0,1,2.05-3.547,3.905,3.905,0,0,1,1.339-.492,3.98,3.98,0,0,1,.711-.061c.075,0,.15,0,.219.007a4,4,0,0,1,1.831.546,4.157,4.157,0,0,1,1.093.916,3.864,3.864,0,0,1,.7,1.23A3.981,3.981,0,0,1,213,225.966Zm0,0" transform="translate(-188.4 -204.1)" fill="#fec108"/>
      <path id="Path_679" data-name="Path 679" d="M210.951,225.283a4.093,4.093,0,0,1-4.1,4.1,1.279,1.279,0,0,1-.232-.014,4.222,4.222,0,0,1-.861-.772,3.865,3.865,0,0,1-.7-1.23,3.981,3.981,0,0,1-.253-1.4,4.056,4.056,0,0,1,2.05-3.547,3.905,3.905,0,0,1,1.339-.492,3.978,3.978,0,0,1,.711-.061c.075,0,.15,0,.219.007a4.123,4.123,0,0,1,.875.779,3.864,3.864,0,0,1,.7,1.23A3.975,3.975,0,0,1,210.951,225.283Zm0,0" transform="translate(-188.4 -204.1)" fill="#ffeb3a"/>
      <path id="Path_680" data-name="Path 680" d="M127.643,126.727a4.124,4.124,0,0,0-1.093.909l-7.851-6.58a14.4,14.4,0,0,1,3.82-3.212Zm0,0" transform="translate(-109.194 -108.407)" fill="#ffb301"/>
      <path id="Path_681" data-name="Path 681" d="M118.62,157.874l-.007-.007" transform="translate(-109.115 -145.225)" fill="#f0c419"/>
      <path id="Path_682" data-name="Path 682" d="M305.6,294.064a14.288,14.288,0,0,1-2.494,4.312l-1.134-.95-6.717-5.631a4.355,4.355,0,0,0,.444-.649,4.158,4.158,0,0,0,.267-.588Zm0,0" transform="translate(-271.61 -267.291)" fill="#ff9801"/>
      <path id="Path_683" data-name="Path 683" d="M393.308,388.187l-.007-.007" transform="translate(-361.806 -357.095)" fill="#f0c419"/>
      <path id="Path_684" data-name="Path 684" d="M87.3,215.3a4.128,4.128,0,0,0-.246,1.4H76.8a14.249,14.249,0,0,1,.861-4.906Zm0,0" transform="translate(-70.65 -194.836)" fill="#ff5722"/>
      <path id="Path_685" data-name="Path 685" d="M314.546,216.624H304.3a3.981,3.981,0,0,0-.253-1.4l8.425-3.068,1.21-.444h.007a14.419,14.419,0,0,1,.861,4.913Zm0,0" transform="translate(-279.696 -194.757)" fill="#d84315"/>
      <path id="Path_686" data-name="Path 686" d="M313.179,221.726H304.3a3.981,3.981,0,0,0-.253-1.4l8.425-3.068a14.372,14.372,0,0,1,.711,4.469Zm0,0" transform="translate(-279.696 -199.86)" fill="#ff5722"/>
      <path id="Path_687" data-name="Path 687" d="M97.9,291.789l-7.851,6.587a14.312,14.312,0,0,1-2.494-4.3h.007l9.635-3.512a3.866,3.866,0,0,0,.7,1.23Zm0,0" transform="translate(-80.54 -267.291)" fill="#ffb301"/>
      <path id="Path_688" data-name="Path 688" d="M290.546,121.055l-7.851,6.587a3.934,3.934,0,0,0-.916-.8,1.332,1.332,0,0,0-.178-.116l4.612-7.988.513-.9A14.4,14.4,0,0,1,290.546,121.055Zm0,0" transform="translate(-259.052 -108.407)" fill="#ff9801"/>
      <path id="Path_689" data-name="Path 689" d="M303.727,300.816a14.441,14.441,0,0,1-1.756,3.362l-6.717-5.631a4.355,4.355,0,0,0,.444-.649Zm0,0" transform="translate(-271.61 -274.043)" fill="#ffb301"/>
      <path id="Path_690" data-name="Path 690" d="M288.674,131.34l-6.895,5.788a1.334,1.334,0,0,0-.178-.116l4.612-7.988A14.64,14.64,0,0,1,288.674,131.34Zm0,0" transform="translate(-259.052 -118.691)" fill="#ffb301"/>
      <path id="Path_691" data-name="Path 691" d="M229.919,94.086l-1.784,10.093a4.038,4.038,0,0,0-.711-.061,3.98,3.98,0,0,0-.711.061l-.1-.54-1.681-9.553a13.606,13.606,0,0,1,1.681-.191c.267-.02.533-.027.806-.027a14.221,14.221,0,0,1,2.494.219Zm0,0" transform="translate(-206.925 -86.35)" fill="#d84315"/>
      <path id="Path_692" data-name="Path 692" d="M228.307,94.4l-1.688,9.553L224.938,94.4a7.506,7.506,0,0,1,3.369,0Zm0,0" transform="translate(-206.925 -86.663)" fill="#ff5722"/>
      <path id="Path_693" data-name="Path 693" d="M37.583,0H3.417A3.421,3.421,0,0,0,0,3.417V37.583A3.421,3.421,0,0,0,3.417,41H37.583A3.421,3.421,0,0,0,41,37.583V3.417A3.421,3.421,0,0,0,37.583,0Zm2.05,37.583a2.05,2.05,0,0,1-2.05,2.05H3.417a2.05,2.05,0,0,1-2.05-2.05V3.417a2.05,2.05,0,0,1,2.05-2.05H37.583a2.05,2.05,0,0,1,2.05,2.05Zm0,0"/>
      <path id="Path_694" data-name="Path 694" d="M68.983,34.133H34.816a.683.683,0,0,0-.683.683V68.983a.683.683,0,0,0,.683.683H68.983a.683.683,0,0,0,.683-.683V34.816A.683.683,0,0,0,68.983,34.133ZM68.3,68.3H35.5V35.5H68.3Zm0,0" transform="translate(-31.4 -31.4)"/>
      <path id="Path_695" data-name="Path 695" d="M68.95,101.054h9.628c.014.1.031.194.051.29l-9.043,3.3h-.011a.684.684,0,0,0-.406.877,14.963,14.963,0,0,0,2.614,4.51.646.646,0,0,0,.152.115.675.675,0,0,0,.37.127.683.683,0,0,0,.44-.161l7.368-6.181a4.758,4.758,0,0,0,6.368.005l7.38,6.186a.683.683,0,0,0,.963-.085c.014-.017.017-.036.029-.053a14.944,14.944,0,0,0,2.578-4.472c.013-.089.027-.179.04-.269v-.014a.678.678,0,0,0-.446-.593l-9.048-3.292c.02-.1.037-.191.051-.288H97.65a.683.683,0,0,0,.683-.683,15.1,15.1,0,0,0-.9-5.145.694.694,0,0,0-.883-.41l-9.044,3.3c-.046-.085-.094-.168-.144-.25l7.373-6.187a.683.683,0,0,0,.084-.962,15.054,15.054,0,0,0-4-3.368.562.562,0,0,0-.622-.018.641.641,0,0,0-.133.068.685.685,0,0,0-.179.2l-4.812,8.337c-.092-.038-.185-.068-.279-.1l1.674-9.476v-.05a.68.68,0,0,0-.005-.221.653.653,0,0,0-.077-.174.689.689,0,0,0-.029-.068,9.714,9.714,0,0,1-.189-.185.694.694,0,0,0-.1-.038.661.661,0,0,0-.156-.061,15.021,15.021,0,0,0-5.22,0c-.019,0-.033.015-.051.02a.646.646,0,0,0-.159.063.684.684,0,0,0-.085.058.653.653,0,0,0-.173.2.711.711,0,0,0-.055.123.65.65,0,0,0-.026.132.562.562,0,0,0-.016.075.692.692,0,0,0,.01.119l1.668,9.477c-.095.031-.187.065-.279.1L76.718,87.6a.684.684,0,0,0-.934-.255,15.042,15.042,0,0,0-3.934,3.292c-.01.009-.023.013-.033.022a.665.665,0,0,0-.161.286l0,.015a.677.677,0,0,0-.025.236.35.35,0,0,0,.01.053.639.639,0,0,0,.054.187.669.669,0,0,0,.059.091.755.755,0,0,0,.068.1.665.665,0,0,0,.051.047l7.372,6.181c-.053.085-.1.17-.149.257l-9.045-3.29a.682.682,0,0,0-.268-.04.55.55,0,0,0-.055.014.676.676,0,0,0-.554.434,14.923,14.923,0,0,0-.9,5.139.684.684,0,0,0,.683.683Zm1.3-4.7L78.629,99.4c-.02.1-.037.191-.051.288H69.663a13.548,13.548,0,0,1,.586-3.338Zm2.164,12.259a13.593,13.593,0,0,1-1.695-2.925l8.379-3.055c.046.085.094.168.144.25ZM83.3,103.788a3.417,3.417,0,0,1-2.623-1.23,3.183,3.183,0,0,1-.584-1.025,3.29,3.29,0,0,1-.21-1.162,3.46,3.46,0,0,1,.205-1.171,3.39,3.39,0,0,1,.588-1.025,3.451,3.451,0,0,1,.922-.763A3.222,3.222,0,0,1,82.711,97a3.261,3.261,0,0,1,.589-.048,3.375,3.375,0,0,1,.6.052,3.226,3.226,0,0,1,1.113.41,3.451,3.451,0,0,1,.913.768,3.178,3.178,0,0,1,.584,1.025,3.29,3.29,0,0,1,.21,1.162,3.451,3.451,0,0,1-.205,1.169,3.4,3.4,0,0,1-3.212,2.248Zm13.052-7.449a13.759,13.759,0,0,1,.586,3.349H88.023c-.014-.1-.031-.194-.051-.291Zm-2.164,12.269-6.829-5.724c.052-.084.1-.17.149-.257l8.378,3.049a13.55,13.55,0,0,1-1.7,2.933ZM93.31,91.087l-6.829,5.73c-.074-.068-.149-.13-.227-.192L90.71,88.9a13.665,13.665,0,0,1,2.6,2.183ZM85,86.823,83.446,95.6c-.1,0-.194,0-.292,0L81.61,86.823A13.674,13.674,0,0,1,85,86.823ZM75.89,88.9l4.455,7.722q-.115.09-.224.187l-6.834-5.723A13.655,13.655,0,0,1,75.89,88.9Zm0,0" transform="translate(-62.8 -78.504)"/>
      <path id="Path_696" data-name="Path 696" d="M68.949,376.832h.683a.683.683,0,1,0,0-1.367h-.683a.683.683,0,1,0,0,1.367Zm0,0" transform="translate(-62.799 -345.398)"/>
      <path id="Path_697" data-name="Path 697" d="M169.318,375.465H154.285a.683.683,0,0,0,0,1.367h15.033a.683.683,0,0,0,0-1.367Zm0,0" transform="translate(-141.302 -345.398)"/>
      <path id="Path_698" data-name="Path 698" d="M419.5,375.465h-.683a.683.683,0,1,0,0,1.367h.683a.683.683,0,0,0,0-1.367Zm0,0" transform="translate(-384.649 -345.398)"/>
    </g>
  </g>
</svg>
