<svg width="46" height="46" viewBox="0 0 46 46" fill="none" xmlns="http://www.w3.org/2000/svg">
<path fill-rule="evenodd" clip-rule="evenodd" d="M0.898438 6.77431V45.1016H45.1016V0.898438H0.898438V6.77431Z" fill="white"/>
<path d="M23 27.7168C25.605 27.7168 27.7168 25.605 27.7168 23C27.7168 20.395 25.605 18.2832 23 18.2832C20.395 18.2832 18.2832 20.395 18.2832 23C18.2832 25.605 20.395 27.7168 23 27.7168Z" fill="#FF7B79"/>
<path d="M23 14.6445C23.9924 14.6445 24.7969 13.84 24.7969 12.8477C24.7969 11.8553 23.9924 11.0508 23 11.0508C22.0076 11.0508 21.2031 11.8553 21.2031 12.8477C21.2031 13.84 22.0076 14.6445 23 14.6445Z" fill="#B8ECBC"/>
<path d="M23 34.9492C23.9924 34.9492 24.7969 34.1447 24.7969 33.1523C24.7969 32.16 23.9924 31.3555 23 31.3555C22.0076 31.3555 21.2031 32.16 21.2031 33.1523C21.2031 34.1447 22.0076 34.9492 23 34.9492Z" fill="#B8ECBC"/>
<path d="M12.8477 24.7969C13.84 24.7969 14.6445 23.9924 14.6445 23C14.6445 22.0076 13.84 21.2031 12.8477 21.2031C11.8553 21.2031 11.0508 22.0076 11.0508 23C11.0508 23.9924 11.8553 24.7969 12.8477 24.7969Z" fill="#B8ECBC"/>
<path d="M33.1523 24.7969C34.1447 24.7969 34.9492 23.9924 34.9492 23C34.9492 22.0076 34.1447 21.2031 33.1523 21.2031C32.16 21.2031 31.3555 22.0076 31.3555 23C31.3555 23.9924 32.16 24.7969 33.1523 24.7969Z" fill="#B8ECBC"/>
<path d="M33.1523 17.5645C35.7574 17.5645 37.8691 15.4527 37.8691 12.8477C37.8691 10.2426 35.7574 8.13086 33.1523 8.13086C30.5473 8.13086 28.4355 10.2426 28.4355 12.8477C28.4355 15.4527 30.5473 17.5645 33.1523 17.5645Z" fill="#FFEE80"/>
<path d="M12.8477 17.5645C15.4527 17.5645 17.5645 15.4527 17.5645 12.8477C17.5645 10.2426 15.4527 8.13086 12.8477 8.13086C10.2426 8.13086 8.13086 10.2426 8.13086 12.8477C8.13086 15.4527 10.2426 17.5645 12.8477 17.5645Z" fill="#FFEE80"/>
<path d="M33.1523 37.8691C35.7574 37.8691 37.8691 35.7574 37.8691 33.1523C37.8691 30.5473 35.7574 28.4355 33.1523 28.4355C30.5473 28.4355 28.4355 30.5473 28.4355 33.1523C28.4355 35.7574 30.5473 37.8691 33.1523 37.8691Z" fill="#FFEE80"/>
<path d="M12.8477 37.8691C15.4527 37.8691 17.5645 35.7574 17.5645 33.1523C17.5645 30.5473 15.4527 28.4355 12.8477 28.4355C10.2426 28.4355 8.13086 30.5473 8.13086 33.1523C8.13086 35.7574 10.2426 37.8691 12.8477 37.8691Z" fill="#FFEE80"/>
<path d="M25.1563 7.09766C25.6524 7.09766 26.0547 6.69541 26.0547 6.19922C26.0547 5.70303 25.6524 5.30078 25.1563 5.30078C24.6601 5.30078 24.2578 5.70303 24.2578 6.19922C24.2578 6.69541 24.6601 7.09766 25.1563 7.09766Z" fill="black"/>
<path d="M40.4297 5.83984C40.9259 5.83984 41.3281 5.4376 41.3281 4.94141C41.3281 4.44521 40.9259 4.04297 40.4297 4.04297C39.9335 4.04297 39.5312 4.44521 39.5312 4.94141C39.5312 5.4376 39.9335 5.83984 40.4297 5.83984Z" fill="black"/>
<path d="M18.3281 5.75C18.8243 5.75 19.2266 5.34776 19.2266 4.85156C19.2266 4.35537 18.8243 3.95312 18.3281 3.95312C17.8319 3.95312 17.4297 4.35537 17.4297 4.85156C17.4297 5.34776 17.8319 5.75 18.3281 5.75Z" fill="black"/>
<path d="M5.57031 5.75C6.06651 5.75 6.46875 5.34776 6.46875 4.85156C6.46875 4.35537 6.06651 3.95312 5.57031 3.95312C5.07412 3.95312 4.67188 4.35537 4.67188 4.85156C4.67188 5.34776 5.07412 5.75 5.57031 5.75Z" fill="black"/>
<path d="M39.082 27.4023C39.5782 27.4023 39.9805 27.0001 39.9805 26.5039C39.9805 26.0077 39.5782 25.6055 39.082 25.6055C38.5858 25.6055 38.1836 26.0077 38.1836 26.5039C38.1836 27.0001 38.5858 27.4023 39.082 27.4023Z" fill="black"/>
<path d="M40.4297 20.6641C40.9259 20.6641 41.3281 20.2618 41.3281 19.7656C41.3281 19.2694 40.9259 18.8672 40.4297 18.8672C39.9335 18.8672 39.5312 19.2694 39.5312 19.7656C39.5312 20.2618 39.9335 20.6641 40.4297 20.6641Z" fill="black"/>
<path d="M39.9805 41.7773C40.4767 41.7773 40.8789 41.3751 40.8789 40.8789C40.8789 40.3827 40.4767 39.9805 39.9805 39.9805C39.4843 39.9805 39.082 40.3827 39.082 40.8789C39.082 41.3751 39.4843 41.7773 39.9805 41.7773Z" fill="black"/>
<path d="M5.12109 41.3281C5.61729 41.3281 6.01953 40.9259 6.01953 40.4297C6.01953 39.9335 5.61729 39.5312 5.12109 39.5312C4.6249 39.5312 4.22266 39.9335 4.22266 40.4297C4.22266 40.9259 4.6249 41.3281 5.12109 41.3281Z" fill="black"/>
<path d="M19.7656 40.8789C20.2618 40.8789 20.6641 40.4767 20.6641 39.9805C20.6641 39.4843 20.2618 39.082 19.7656 39.082C19.2694 39.082 18.8672 39.4843 18.8672 39.9805C18.8672 40.4767 19.2694 40.8789 19.7656 40.8789Z" fill="black"/>
<path d="M26.5039 42.2266C27.0001 42.2266 27.4023 41.8243 27.4023 41.3281C27.4023 40.8319 27.0001 40.4297 26.5039 40.4297C26.0077 40.4297 25.6055 40.8319 25.6055 41.3281C25.6055 41.8243 26.0077 42.2266 26.5039 42.2266Z" fill="black"/>
<path d="M6.46875 20.3945C6.96494 20.3945 7.36719 19.9923 7.36719 19.4961C7.36719 18.9999 6.96494 18.5977 6.46875 18.5977C5.97256 18.5977 5.57031 18.9999 5.57031 19.4961C5.57031 19.9923 5.97256 20.3945 6.46875 20.3945Z" fill="black"/>
<path d="M5.21094 27.2227C5.70713 27.2227 6.10938 26.8204 6.10938 26.3242C6.10938 25.828 5.70713 25.4258 5.21094 25.4258C4.71474 25.4258 4.3125 25.828 4.3125 26.3242C4.3125 26.8204 4.71474 27.2227 5.21094 27.2227Z" fill="black"/>
<path d="M45.1016 34.6438C45.5978 34.6438 46 34.2416 46 33.7454C46 33.2492 45.5978 32.8469 45.1016 32.8469C44.6054 32.8469 44.2031 33.2492 44.2031 33.7454C44.2031 34.2416 44.6054 34.6438 45.1016 34.6438Z" fill="black"/>
<path d="M45.7368 0.263242C45.5679 0.0953302 45.3397 0.000745738 45.1016 0L0.898438 0C0.662148 0 0.430352 0.096043 0.263242 0.263242C0.0953714 0.432113 0.00079424 0.660325 0 0.898438L0 45.1016C0 45.3379 0.0961328 45.5696 0.263242 45.7367C0.432077 45.9046 0.660305 45.9992 0.898438 46H45.1016C45.3379 46 45.5696 45.9039 45.7368 45.7367C45.9046 45.5678 45.9992 45.3397 46 45.1016V37.7883C46 37.2932 45.5966 36.8898 45.1016 36.8898C44.6065 36.8898 44.2031 37.2932 44.2031 37.7883V44.2031H1.79688V1.79688H44.2031V29.7023C44.2031 30.1974 44.6065 30.6008 45.1016 30.6008C45.5966 30.6008 46 30.1974 46 29.7023V0.898438C46 0.662148 45.9039 0.430352 45.7368 0.263242Z" fill="black"/>
<path d="M28.6152 23C28.6152 19.9037 26.0962 17.3848 23 17.3848C19.9038 17.3848 17.3848 19.9037 17.3848 23C17.3848 26.0963 19.9038 28.6152 23 28.6152C26.0962 28.6152 28.6152 26.0963 28.6152 23ZM23 26.8184C20.8945 26.8184 19.1816 25.1055 19.1816 23C19.1816 20.8945 20.8945 19.1816 23 19.1816C25.1055 19.1816 26.8184 20.8945 26.8184 23C26.8184 25.1055 25.1055 26.8184 23 26.8184ZM25.6953 12.8477C25.6953 11.3615 24.4862 10.1523 23 10.1523C21.5138 10.1523 20.3047 11.3615 20.3047 12.8477C20.3047 14.3339 21.5138 15.543 23 15.543C24.4862 15.543 25.6953 14.3339 25.6953 12.8477ZM22.1016 12.8477C22.1016 12.3523 22.5046 11.9492 23 11.9492C23.4954 11.9492 23.8984 12.3523 23.8984 12.8477C23.8984 13.3431 23.4954 13.7461 23 13.7461C22.5046 13.7461 22.1016 13.3431 22.1016 12.8477ZM20.3047 33.1523C20.3047 34.6385 21.5138 35.8477 23 35.8477C24.4862 35.8477 25.6953 34.6385 25.6953 33.1523C25.6953 31.6661 24.4862 30.457 23 30.457C21.5138 30.457 20.3047 31.6661 20.3047 33.1523ZM23.8984 33.1523C23.8984 33.6477 23.4954 34.0508 23 34.0508C22.5046 34.0508 22.1016 33.6477 22.1016 33.1523C22.1016 32.6569 22.5046 32.2539 23 32.2539C23.4954 32.2539 23.8984 32.6569 23.8984 33.1523ZM10.1523 23C10.1523 24.4862 11.3615 25.6953 12.8477 25.6953C14.3339 25.6953 15.543 24.4862 15.543 23C15.543 21.5138 14.3339 20.3047 12.8477 20.3047C11.3615 20.3047 10.1523 21.5138 10.1523 23ZM13.7461 23C13.7461 23.4954 13.3431 23.8984 12.8477 23.8984C12.3523 23.8984 11.9492 23.4954 11.9492 23C11.9492 22.5046 12.3523 22.1016 12.8477 22.1016C13.3431 22.1016 13.7461 22.5046 13.7461 23ZM35.8477 23C35.8477 21.5138 34.6385 20.3047 33.1523 20.3047C31.6661 20.3047 30.457 21.5138 30.457 23C30.457 24.4862 31.6661 25.6953 33.1523 25.6953C34.6385 25.6953 35.8477 24.4862 35.8477 23ZM32.2539 23C32.2539 22.5046 32.6569 22.1016 33.1523 22.1016C33.6477 22.1016 34.0508 22.5046 34.0508 23C34.0508 23.4954 33.6477 23.8984 33.1523 23.8984C32.6569 23.8984 32.2539 23.4954 32.2539 23ZM33.1523 7.23242C30.0561 7.23242 27.5371 9.75137 27.5371 12.8477C27.5371 15.9439 30.0561 18.4629 33.1523 18.4629C36.2485 18.4629 38.7676 15.9439 38.7676 12.8477C38.7676 9.75137 36.2485 7.23242 33.1523 7.23242ZM33.1523 16.666C31.0469 16.666 29.334 14.9531 29.334 12.8477C29.334 10.7422 31.0469 9.0293 33.1523 9.0293C35.2578 9.0293 36.9707 10.7422 36.9707 12.8477C36.9707 14.9531 35.2578 16.666 33.1523 16.666ZM18.4629 12.8477C18.4629 9.75137 15.9439 7.23242 12.8477 7.23242C9.75146 7.23242 7.23242 9.75137 7.23242 12.8477C7.23242 15.9439 9.75146 18.4629 12.8477 18.4629C15.9439 18.4629 18.4629 15.9439 18.4629 12.8477ZM12.8477 16.666C10.7422 16.666 9.0293 14.9531 9.0293 12.8477C9.0293 10.7422 10.7422 9.0293 12.8477 9.0293C14.9531 9.0293 16.666 10.7422 16.666 12.8477C16.666 14.9531 14.9531 16.666 12.8477 16.666ZM33.1523 38.7676C36.2485 38.7676 38.7676 36.2486 38.7676 33.1523C38.7676 30.0561 36.2485 27.5371 33.1523 27.5371C30.0561 27.5371 27.5371 30.0561 27.5371 33.1523C27.5371 36.2486 30.0561 38.7676 33.1523 38.7676ZM33.1523 29.334C35.2578 29.334 36.9707 31.0469 36.9707 33.1523C36.9707 35.2578 35.2578 36.9707 33.1523 36.9707C31.0469 36.9707 29.334 35.2578 29.334 33.1523C29.334 31.0469 31.0469 29.334 33.1523 29.334ZM12.8477 38.7676C15.9439 38.7676 18.4629 36.2486 18.4629 33.1523C18.4629 30.0561 15.9439 27.5371 12.8477 27.5371C9.75146 27.5371 7.23242 30.0561 7.23242 33.1523C7.23242 36.2486 9.75146 38.7676 12.8477 38.7676ZM12.8477 29.334C14.9531 29.334 16.666 31.0469 16.666 33.1523C16.666 35.2578 14.9531 36.9707 12.8477 36.9707C10.7422 36.9707 9.0293 35.2578 9.0293 33.1523C9.0293 31.0469 10.7422 29.334 12.8477 29.334Z" fill="black"/>
</svg>
