<svg width="21" height="23" viewBox="0 0 21 23" fill="none" xmlns="http://www.w3.org/2000/svg">
<path d="M6.00169 22.75C6.34844 22.75 6.70344 22.748 7.06619 22.748H13.9329C14.2952 22.748 14.6502 22.75 14.9969 22.75C18.1742 22.75 20.6019 22.5875 20.6019 19.266C20.6019 15.7895 17.9432 12.9355 14.5477 12.6253C14.5207 13.8415 10.5007 16.843 10.5007 16.843C10.5007 16.843 6.47969 13.8418 6.45244 12.6255C3.05744 12.9355 0.398193 15.7895 0.398193 19.266C0.398193 22.5875 2.82494 22.75 6.00169 22.75ZM13.4999 18.2143C13.4999 18.1153 13.5892 18.0355 13.7002 18.0355H14.7862V16.95C14.7862 16.84 14.8654 16.7498 14.9644 16.7498H16.0362C16.1347 16.7498 16.2144 16.8393 16.2144 16.95V18.0358H17.2999C17.4099 18.0358 17.4999 18.1155 17.4999 18.2145V19.2858C17.4999 19.3848 17.4107 19.4645 17.2999 19.4645H16.2142V20.55C16.2142 20.6605 16.1342 20.75 16.0354 20.75H14.9642C14.8652 20.75 14.7854 20.6608 14.7854 20.55V19.4643H13.6999C13.5894 19.4643 13.4997 19.3845 13.4997 19.2855L13.4999 18.2143Z" fill="#888E9D"/>
<path d="M10.5019 13.498C13.5729 13.498 16.0621 8.88025 16.0621 5.8095C16.0621 2.73925 13.5729 0.25 10.5019 0.25C7.43139 0.25 4.94214 2.73925 4.94214 5.8095C4.94214 8.88025 7.43139 13.498 10.5019 13.498Z" fill="#888E9D"/>
</svg>
