<svg width="18" height="18" viewBox="0 0 18 18" fill="none" xmlns="http://www.w3.org/2000/svg">
<path d="M5.4375 1.5L5.4375 6C5.4375 6.3075 5.1825 6.5625 4.875 6.5625C4.5675 6.5625 4.3125 6.3075 4.3125 6L4.3125 1.5C4.3125 1.1925 4.5675 0.9375 4.875 0.9375C5.1825 0.9375 5.4375 1.1925 5.4375 1.5Z" fill="#292D32"/>
<path d="M5.4375 13.5L5.4375 16.5C5.4375 16.8075 5.1825 17.0625 4.875 17.0625C4.5675 17.0625 4.3125 16.8075 4.3125 16.5L4.3125 13.5C4.3125 13.1925 4.5675 12.9375 4.875 12.9375C5.1825 12.9375 5.4375 13.1925 5.4375 13.5Z" fill="#292D32"/>
<path d="M8.0625 10.5C8.0625 12.255 6.63 13.6875 4.875 13.6875C3.12 13.6875 1.6875 12.255 1.6875 10.5C1.6875 8.745 3.12 7.3125 4.875 7.3125C6.63 7.3125 8.0625 8.745 8.0625 10.5ZM2.8125 10.5C2.8125 11.64 3.735 12.5625 4.875 12.5625C6.015 12.5625 6.9375 11.64 6.9375 10.5C6.9375 9.36 6.015 8.4375 4.875 8.4375C3.735 8.4375 2.8125 9.36 2.8125 10.5Z" fill="#292D32"/>
<path d="M13.6875 1.5L13.6875 4.5C13.6875 4.8075 13.4325 5.0625 13.125 5.0625C12.8175 5.0625 12.5625 4.8075 12.5625 4.5L12.5625 1.5C12.5625 1.1925 12.8175 0.9375 13.125 0.9375C13.4325 0.9375 13.6875 1.1925 13.6875 1.5Z" fill="#292D32"/>
<path d="M13.6875 12L13.6875 16.5C13.6875 16.8075 13.4325 17.0625 13.125 17.0625C12.8175 17.0625 12.5625 16.8075 12.5625 16.5L12.5625 12C12.5625 11.6925 12.8175 11.4375 13.125 11.4375C13.4325 11.4375 13.6875 11.6925 13.6875 12Z" fill="#292D32"/>
<path d="M16.3125 7.5C16.3125 9.255 14.88 10.6875 13.125 10.6875C11.37 10.6875 9.9375 9.255 9.9375 7.5C9.9375 5.745 11.37 4.3125 13.125 4.3125C14.88 4.3125 16.3125 5.745 16.3125 7.5ZM11.0625 7.5C11.0625 8.64 11.985 9.5625 13.125 9.5625C14.265 9.5625 15.1875 8.64 15.1875 7.5C15.1875 6.36 14.265 5.4375 13.125 5.4375C11.985 5.4375 11.0625 6.36 11.0625 7.5Z" fill="#292D32"/>
</svg>
