<svg width="34" height="34" viewBox="0 0 34 34" fill="none" xmlns="http://www.w3.org/2000/svg">
<rect opacity="0.2" width="34" height="34" rx="17" fill="#0F9455"/>
<path d="M11.55 21.4085V18.9752C11.55 18.1668 12.1834 17.4418 13.0834 17.4418C13.8917 17.4418 14.6167 18.0752 14.6167 18.9752V21.3168C14.6167 22.9418 13.2667 24.2918 11.6417 24.2918C10.0167 24.2918 8.66671 22.9335 8.66671 21.3168V16.1835C8.57504 11.5002 12.275 7.7085 16.9584 7.7085C21.6417 7.7085 25.3334 11.5002 25.3334 16.0918V21.2252C25.3334 22.8502 23.9834 24.2002 22.3584 24.2002C20.7334 24.2002 19.3834 22.8502 19.3834 21.2252V18.8835C19.3834 18.0752 20.0167 17.3502 20.9167 17.3502C21.725 17.3502 22.45 17.9835 22.45 18.8835V21.4085" stroke="#0F9455" stroke-width="1.5" stroke-linecap="round" stroke-linejoin="round"/>
</svg>
