<svg width="20" height="20" viewBox="0 0 20 20" fill="none" xmlns="http://www.w3.org/2000/svg">
<path d="M10.5649 10.7821C9.59568 10.7821 8.80713 11.5708 8.80713 12.5401V14.6887H12.3228V12.5401C12.3228 11.5708 11.5342 10.7821 10.5649 10.7821Z" fill="#008541"/>
<path d="M8.80713 17.6186C8.80713 18.588 9.59568 19.3766 10.5649 19.3766C11.5342 19.3766 12.3228 18.588 12.3228 17.6186V15.8607H8.80713V17.6186Z" fill="#008541"/>
<path d="M16.4243 11.9364V4.68789H12.3228C11.9992 4.68789 11.7368 4.42555 11.7368 4.10191V0H1.77588C1.45229 0 1.18994 0.262344 1.18994 0.585977V18.2046C1.18994 18.5282 1.45229 18.7906 1.77588 18.7906H7.88061C7.72322 18.4314 7.63525 18.0352 7.63525 17.6186V12.5401C7.63525 10.9246 8.94951 9.61019 10.5649 9.61019C12.0531 9.61019 13.2848 10.726 13.4697 12.1648C14.4132 11.7676 15.4603 11.6987 16.4243 11.9364ZM6.46338 15.2747H4.11963C3.79604 15.2747 3.53369 15.0123 3.53369 14.6887C3.53369 14.3651 3.79604 14.1027 4.11963 14.1027H6.46338C6.78697 14.1027 7.04932 14.3651 7.04932 14.6887C7.04932 15.0123 6.78697 15.2747 6.46338 15.2747ZM7.65479 10.6064H4.13916C3.81557 10.6064 3.55322 10.344 3.55322 10.0204C3.55322 9.69676 3.81557 9.43441 4.13916 9.43441H7.65479C7.97838 9.43441 8.24072 9.69676 8.24072 10.0204C8.24072 10.344 7.97838 10.6064 7.65479 10.6064ZM9.979 8.24289H4.11963C3.79604 8.24289 3.53369 7.98055 3.53369 7.65691C3.53369 7.33328 3.79604 7.07094 4.11963 7.07094H9.979C10.3026 7.07094 10.5649 7.33328 10.5649 7.65691C10.5649 7.98055 10.3026 8.24289 9.979 8.24289ZM9.979 5.89894H4.11963C3.79604 5.89894 3.53369 5.6366 3.53369 5.31297C3.53369 4.98934 3.79604 4.72699 4.11963 4.72699H9.979C10.3026 4.72699 10.5649 4.98934 10.5649 5.31297C10.5649 5.6366 10.3026 5.89894 9.979 5.89894Z" fill="#008541"/>
<path d="M12.9087 0.343292V3.51591H16.0811L12.9087 0.343292Z" fill="#008541"/>
<path d="M13.4946 13.4636V17.4541L17.3284 13.62C16.1922 12.8114 14.6794 12.7592 13.4946 13.4636Z" fill="#008541"/>
<path d="M18.1564 14.4491L13.2554 19.3506C13.8625 19.7828 14.5766 20 15.2914 20C18.1504 20 19.8032 16.7638 18.1564 14.4491Z" fill="#008541"/>
</svg>
