<svg width="24" height="24" viewBox="0 0 24 24" fill="none" xmlns="http://www.w3.org/2000/svg">
<path d="M1 12C1 4 4 1 12 1C20 1 23 4 23 12C23 20 20 23 12 23C4 23 1 20 1 12Z" fill="#00CD4C"/>
<path d="M3 20L3.68495 17.9743C3.91327 17.3227 4.09877 16.657 4.35563 16.0195C4.42576 15.8836 4.46233 15.7331 4.46233 15.5804C4.46233 15.4277 4.42576 15.2772 4.35563 15.1413C3.54431 13.6544 3.2132 11.9558 3.4072 10.2758C3.6012 8.59582 4.31092 7.01567 5.44013 5.74961C6.25993 4.82193 7.28303 4.09313 8.43083 3.6192C9.57863 3.14527 10.8206 2.93881 12.0613 3.01568C13.9419 3.07729 15.7404 3.79447 17.1414 5.04134C18.4662 6.18597 19.3906 7.71866 19.7813 9.41845C20.1076 10.793 20.0682 12.2282 19.6671 13.5831C19.1767 15.2857 18.1332 16.7797 16.699 17.8327C15.7494 18.5668 14.648 19.0834 13.4737 19.3455C12.2994 19.6075 11.0813 19.6085 9.90658 19.3484C9.1634 19.2 8.44675 18.9422 7.78038 18.5835C7.72905 18.5595 7.67301 18.547 7.61628 18.547C7.55954 18.547 7.50351 18.5595 7.45217 18.5835L3.62787 19.7734L3 20ZM5.16901 17.861H5.29744L7.69476 17.1103C7.77805 17.0822 7.86833 17.0822 7.95162 17.1103C8.29409 17.2802 8.6223 17.4927 8.97904 17.6344C10.4008 18.2542 11.9964 18.3595 13.4883 17.9319C14.3658 17.6992 15.1876 17.2949 15.9056 16.7427C16.6235 16.1906 17.2232 15.5016 17.6693 14.7163C18.5547 13.1864 18.816 11.3778 18.3992 9.66255C17.9825 7.9473 16.9196 6.45574 15.429 5.49463C14.0794 4.62546 12.4673 4.2491 10.869 4.43C9.27056 4.61089 7.78523 5.33779 6.66734 6.48621C5.75226 7.4138 5.12772 8.58486 4.86934 9.85757C4.66625 10.7301 4.64373 11.6345 4.80317 12.516C4.96261 13.3974 5.30067 14.2375 5.79688 14.9854C5.87743 15.118 5.92001 15.2698 5.92001 15.4246C5.92001 15.5794 5.87743 15.7312 5.79688 15.8637C5.61137 16.487 5.41159 17.1669 5.16901 17.861Z" fill="white"/>
<path d="M14.9786 13.5562C14.9715 13.8134 14.8938 14.0634 14.7547 14.2772C14.6155 14.491 14.4205 14.66 14.192 14.7647C13.9549 14.898 13.6925 14.9768 13.4229 14.9956C13.1533 15.0144 12.883 14.9727 12.6306 14.8734C12.1472 14.693 11.6731 14.4873 11.21 14.2571C10.6119 13.9309 10.0783 13.4923 9.63687 12.964C9.13607 12.397 8.70617 11.7678 8.35719 11.0909C8.09544 10.6218 7.97299 10.084 8.00499 9.54403C8.02913 9.26521 8.11072 8.99489 8.24433 8.75108C8.37794 8.50727 8.5605 8.29558 8.77984 8.13011C8.88099 8.05963 8.99845 8.01794 9.1203 8.00926C9.26877 7.99691 9.41796 7.99691 9.56643 8.00926C9.62072 8.01633 9.67184 8.03953 9.71353 8.07601C9.75523 8.11249 9.7857 8.16068 9.80123 8.2147C9.91863 8.49265 10.0126 8.7706 10.1182 9.06064C10.2239 9.35067 10.2474 9.44735 10.3295 9.62862C10.4018 9.7285 10.4368 9.85177 10.4282 9.97597C10.4195 10.1002 10.3679 10.2171 10.2826 10.3054C10.1696 10.4573 10.0438 10.5989 9.90689 10.7283C9.85679 10.769 9.82308 10.8273 9.81224 10.892C9.8014 10.9567 9.81421 11.0232 9.84819 11.0788C10.166 11.673 10.588 12.2016 11.0926 12.6377C11.4544 12.917 11.8488 13.1485 12.2667 13.3266C12.3099 13.3673 12.3665 13.3899 12.4252 13.3899C12.4838 13.3899 12.5404 13.3673 12.5836 13.3266L13.1707 12.6377C13.2998 12.4927 13.3585 12.4565 13.5229 12.5411L14.9669 13.3145C14.9864 13.3513 14.9976 13.3921 14.9997 13.4339C15.0017 13.4758 14.9945 13.5176 14.9786 13.5562Z" fill="white"/>
</svg>
